<!-- Generator: Adobe Illustrator 22.0.1, SVG Export Plug-In  -->
<svg version="1.1"
	 xmlns="http://www.w3.org/2000/svg" xmlns:xlink="http://www.w3.org/1999/xlink" xmlns:a="http://ns.adobe.com/AdobeSVGViewerExtensions/3.0/"
	 x="0px" y="0px" width="93.1px" height="226px" viewBox="0 0 93.1 226"
	 style="overflow:scroll;enable-background:new 0 0 93.1 226;" xml:space="preserve">
<style type="text/css">
	.st0{fill:#4D245F;stroke:#4D245F;stroke-width:6;stroke-miterlimit:10;}
	.st1{fill:none;stroke:#4D245F;stroke-width:6;stroke-miterlimit:10;}
	.st2{fill:#FF0000;stroke:#4D245F;stroke-width:6;stroke-miterlimit:10;}
	.st3{fill:#E6E6E6;}
</style>
<defs>
</defs>
<g>
	<polygon class="st0" points="46.6,218 25.6,223 67.6,223 	"/>
	<path class="st1" d="M79.6,95.5c0,21.8-14.8,39.5-33,39.5s-33-17.7-33-39.5"/>
	<line class="st1" x1="13.5" y1="62.7" x2="13.5" y2="96.1"/>
	<polyline class="st1" points="79.6,62.7 79.6,3 13.5,3 13.5,62.7 	"/>
	<line class="st2" x1="79.6" y1="96.1" x2="79.6" y2="62.7"/>
	<line class="st1" x1="46.6" y1="135" x2="46.6" y2="218"/>
	<rect x="17.6" y="10" class="st3" width="18" height="83"/>
	<path class="st3" d="M35.6,98.5V123c-4.2,0-8.3-2.6-11.3-7.2c-3-4.6-4.7-10.8-4.7-17.3H35.6z"/>
</g>
</svg>
