<!-- Generator: Adobe Illustrator 22.0.1, SVG Export Plug-In  -->
<svg version="1.1"
	 xmlns="http://www.w3.org/2000/svg" xmlns:xlink="http://www.w3.org/1999/xlink" xmlns:a="http://ns.adobe.com/AdobeSVGViewerExtensions/3.0/"
	 x="0px" y="0px" width="116.9px" height="172px" viewBox="0 0 116.9 172"
	 style="overflow:scroll;enable-background:new 0 0 116.9 172;" xml:space="preserve">
<style type="text/css">
	.st0{fill:none;stroke:#4D245F;stroke-width:6;stroke-linecap:round;stroke-miterlimit:10;}
	.st1{fill:#E6E6E6;}
</style>
<defs>
</defs>
<g>
	<path class="st0" d="M7.4,48.6C4.6,39.6,3,29.8,3,19.5C3,13.9,3.5,8.3,4.4,3"/>
	<path class="st0" d="M109.6,48.5c-8.4,26.8-28.1,45.5-51.1,45.5c-23,0-42.7-18.8-51.1-45.5"/>
	<path class="st0" d="M112.6,3c0.9,5.3,1.4,10.8,1.4,16.5c0,10.3-1.6,20.1-4.4,29"/>
	<line class="st0" x1="4.5" y1="3" x2="112.4" y2="3"/>
	<line class="st0" x1="58.8" y1="94.1" x2="58.8" y2="169"/>
	<line class="st0" x1="23.6" y1="169" x2="94.8" y2="169"/>
	<path class="st1" d="M45.1,48.7l0.6,36.2c-6.4,0-13.2-7-17.8-13.1S17.2,57.5,16,49.2L45.1,48.7z"/>
	<path class="st1" d="M40.9,42.1H26.6c-6.5,0-11.8-5.3-11.8-11.8V12.5h26.1V42.1z"/>
</g>
</svg>
